<svg width="128" height="128" viewBox="0 0 128 128" fill="none" xmlns="http://www.w3.org/2000/svg">
  <rect width="128" height="128" rx="28" fill="#0D1117"/>
  <path d="M28 82C38.5 63 47 54 58 54C72 54 74 75 88 75C94.5 75 99 70.5 104 62" stroke="#28C840" stroke-width="9" stroke-linecap="round"/>
  <path d="M28 52C38 42 47.5 37 59 37C72.5 37 78 46 89 46C94.5 46 99.5 44 104 40" stroke="#215BD8" stroke-width="9" stroke-linecap="round" opacity="0.9"/>
  <circle cx="58" cy="54" r="8" fill="#F8FAFC"/>
  <circle cx="88" cy="75" r="8" fill="#F8FAFC"/>
  <rect x="24" y="96" width="80" height="8" rx="4" fill="#161B22"/>
  <rect x="24" y="96" width="48" height="8" rx="4" fill="#28C840"/>
</svg>
